<?xml version="1.0" standalone="no"?>
<!DOCTYPE svg PUBLIC "-//W3C//DTD SVG 20010904//EN"
 "http://www.w3.org/TR/2001/REC-SVG-20010904/DTD/svg10.dtd">
<svg version="1.0" xmlns="http://www.w3.org/2000/svg"
 width="260.000000pt" height="260.000000pt" viewBox="0 0 260.000000 260.000000"
 preserveAspectRatio="xMidYMid meet">
<metadata>
Created by potrace 1.11, written by Peter Selinger 2001-2013
</metadata>
<g transform="translate(0.000000,260.000000) scale(0.100000,-0.100000)"
fill="#000000" stroke="none">
<path d="M1270 2410 c-82 -15 -96 -18 -158 -35 l-62 -18 39 -36 c118 -111 190
-156 326 -207 160 -59 370 -12 425 96 11 21 20 58 20 80 0 39 -2 42 -45 60
-42 18 -116 40 -190 55 -47 10 -305 14 -355 5z"/>
<path d="M564 2188 c-147 -114 -229 -209 -327 -380 l-27 -47 35 -17 c77 -36
173 -191 190 -304 0 -3 3 -9 7 -15 22 -36 30 -260 11 -350 -26 -131 -87 -257
-140 -292 -30 -20 -29 -25 8 -80 77 -112 244 -254 392 -333 90 -48 237 -104
302 -116 17 -3 48 -9 70 -14 108 -23 283 -31 397 -16 175 23 377 88 506 165
118 69 312 232 312 260 0 6 4 11 9 11 12 0 91 111 129 181 40 74 97 229 112
304 18 87 20 267 5 360 -24 144 -99 324 -180 433 -23 31 -70 88 -105 125 -61
66 -64 68 -73 45 -15 -39 -10 -189 8 -238 18 -51 58 -124 120 -220 49 -77 77
-136 98 -208 9 -29 16 -54 17 -57 0 -3 0 -6 1 -7 7 -20 4 -153 -5 -192 -47
-199 -262 -369 -563 -445 -145 -36 -233 -46 -423 -46 -161 0 -231 6 -315 25
-27 7 -61 14 -75 16 -48 10 -205 77 -255 110 -164 109 -237 239 -231 410 5
131 20 182 99 339 77 155 94 208 92 295 -3 106 -53 247 -117 333 -13 17 -18
15 -84 -35z"/>
<path d="M1159 1820 c-158 -19 -245 -223 -195 -456 7 -36 55 -127 80 -156 36
-40 101 -71 149 -71 78 0 145 50 191 141 19 37 43 153 41 192 -6 81 -19 138
-44 194 -38 83 -70 115 -161 155 -8 4 -36 4 -61 1z"/>
<path d="M1940 1813 c-83 -28 -130 -86 -153 -187 -35 -152 19 -327 118 -384
86 -50 184 -5 233 108 21 48 23 55 27 140 8 162 -71 302 -180 322 -16 3 -37 3
-45 1z"/>
<path d="M140 1633 c-95 -37 -146 -327 -95 -543 43 -182 111 -264 183 -220 42
26 69 81 90 180 7 35 7 288 -1 328 -29 161 -112 280 -177 255z"/>
</g>
</svg>
